<?xml version="1.0" encoding="utf-8"?>
<!-- Generator: Adobe Illustrator 17.0.0, SVG Export Plug-In . SVG Version: 6.00 Build 0)  -->
<!DOCTYPE svg PUBLIC "-//W3C//DTD SVG 1.1//EN" "http://www.w3.org/Graphics/SVG/1.1/DTD/svg11.dtd" [
	<!ENTITY ns_flows "http://ns.adobe.com/Flows/1.0/">
	<!ENTITY ns_extend "http://ns.adobe.com/Extensibility/1.0/">
	<!ENTITY ns_ai "http://ns.adobe.com/AdobeIllustrator/10.0/">
	<!ENTITY ns_graphs "http://ns.adobe.com/Graphs/1.0/">
	<!ENTITY ns_vars "http://ns.adobe.com/Variables/1.0/">
	<!ENTITY ns_imrep "http://ns.adobe.com/ImageReplacement/1.0/">
	<!ENTITY ns_sfw "http://ns.adobe.com/SaveForWeb/1.0/">
	<!ENTITY ns_custom "http://ns.adobe.com/GenericCustomNamespace/1.0/">
	<!ENTITY ns_adobe_xpath "http://ns.adobe.com/XPath/1.0/">
]>
<svg version="1.1" id="Camada_1" xmlns:x="&ns_extend;" xmlns:i="&ns_ai;" xmlns:graph="&ns_graphs;"
	 xmlns="http://www.w3.org/2000/svg" xmlns:xlink="http://www.w3.org/1999/xlink" xmlns:a="http://ns.adobe.com/AdobeSVGViewerExtensions/3.0/"
	 x="0px" y="0px" width="500px" height="150px" viewBox="0 0 500 150" enable-background="new 0 0 500 150" xml:space="preserve">
<metadata>
	<sfw  xmlns="&ns_sfw;">
		<slices></slices>
		<sliceSourceBounds  height="148.2676239" width="500" y="-149.1338043" x="0" bottomLeftOrigin="true"></sliceSourceBounds>
	</sfw>
</metadata>
<g>
	<g>
		<path fill="#FFFFFF" d="M112.3052444,38.4482193"/>
		<path fill="#FFFFFF" d="M85.752121,145.8027802"/>
		<path fill="#FFFFFF" d="M69.4776306,38.4482193"/>
		<linearGradient id="SVGID_1_" gradientUnits="userSpaceOnUse" x1="97.2509308" y1="14.1278124" x2="83.7136536" y2="144.9439392">
			<stop  offset="0" style="stop-color:#008800"/>
			<stop  offset="1" style="stop-color:#0A3200"/>
			<a:midPointStop  offset="0" style="stop-color:#008800"/>
			<a:midPointStop  offset="0.5" style="stop-color:#008800"/>
			<a:midPointStop  offset="1" style="stop-color:#0A3200"/>
		</linearGradient>
		<path fill="url(#SVGID_1_)" d="M118.6652832,18.8246937c-20.5572586,22.9545612-49.2295074,56.051239-34.5476151,128.0249786
			c-8.2800064-9.993103-17.1443481-43.8013458-16.2744904-59.1021042
			C70.698349,37.5251007,107.2445831,26.075798,118.6652832,18.8246937z"/>
		<linearGradient id="SVGID_2_" gradientUnits="userSpaceOnUse" x1="104.907692" y1="40.5059128" x2="92.9165649" y2="146.713089">
			<stop  offset="0" style="stop-color:#00CC00"/>
			<stop  offset="0.9949238" style="stop-color:#065506"/>
			<a:midPointStop  offset="0" style="stop-color:#00CC00"/>
			<a:midPointStop  offset="0.5" style="stop-color:#00CC00"/>
			<a:midPointStop  offset="0.9949238" style="stop-color:#065506"/>
		</linearGradient>
		<path fill="url(#SVGID_2_)" d="M118.6652832,38.4482193c-40.8289948,23.9834633-37.4999924,74.3324203-26.5531235,108.4014511
			C90.5418091,105.9255066,89.2569809,68.7130661,118.6652832,38.4482193z"/>
		<linearGradient id="SVGID_3_" gradientUnits="userSpaceOnUse" x1="64.4945374" y1="35.9391518" x2="64.0662766" y2="144.7158508">
			<stop  offset="0" style="stop-color:#00FE00"/>
			<stop  offset="1" style="stop-color:#005A00"/>
			<a:midPointStop  offset="0" style="stop-color:#00FE00"/>
			<a:midPointStop  offset="0.5" style="stop-color:#00FE00"/>
			<a:midPointStop  offset="1" style="stop-color:#005A00"/>
		</linearGradient>
		<path fill="url(#SVGID_3_)" d="M78.9783554,146.8496704C26.4431477,90.4599762,55.8514442,50.6302948,75.8376617,38.4482193
			C58.7066193,65.7627182,54.7093735,108.3048172,78.9783554,146.8496704z"/>
		<path d="M108.7558289,149.1338043H59.2882957c-0.4127731,0-0.7473907-0.33461-0.7473907-0.7473907v-0.7893524
			c0-0.4127655,0.3346176-0.7473907,0.7473907-0.7473907h49.4675331c0.4127731,0,0.7473907,0.3346252,0.7473907,0.7473907v0.7893524
			C109.5032196,148.7991943,109.168602,149.1338043,108.7558289,149.1338043z"/>
		<path fill="#3C3C3B" d="M168.0441437,82.8382339c0,0.6195908-0.005722,1.2391586-0.0228424,1.8558655
			C167.0105438,40.279007,129.7904968,4.5779152,84.0220642,4.5779152S1.0335717,40.279007,0.0228288,84.6940994
			C0.0056985,84.0773926,0,83.4578247,0,82.8382339C0,37.5665932,37.6169205,0.8661885,84.0220642,0.8661885
			S168.0441437,37.5665932,168.0441437,82.8382339z"/>
	</g>
	<g>
		<path fill="#0C3F00" d="M184.6848145,45.8770561c2.5883942-2.5886726,5.5094147-4.529892,8.7653503-5.8242302
			c3.253952-1.2943344,6.5684967-1.9412155,9.941925-1.9412155c3.3717041,0,6.686264,0.6468811,9.941925,1.9412155
			c3.2539368,1.2943382,6.1769562,3.2355576,8.7653503,5.8242302l3.6474609,3.6474648l-7.2946472,7.4121323l-3.7649536-3.6474648
			c-1.5700836-1.5677986-3.3349304-2.7443619-5.2945404-3.5296974c-1.9616089-0.7830353-3.9617157-1.1765671-6.0005951-1.1765671
			c-2.0406036,0-4.0407104,0.3935318-6.0005951,1.1765671c-1.9613342,0.7853355-3.726181,1.9618988-5.2945404,3.5296974
			c-1.569809,1.4908104-2.7463837,3.2171707-3.5297089,5.1767693c-0.7847595,1.9619026-1.1765594,3.9617157-1.1765594,6.0006027
			c0,2.0406036,0.3917999,4.0409927,1.1765594,6.0005951c0.7833252,1.9613266,1.9598999,3.7261734,3.5297089,5.2945404
			c3.1364441,3.1378937,6.9013977,4.7062607,11.2951355,4.7062607c2.1178741,0,4.1564636-0.3917999,6.1180878-1.1765594
			c1.9598846-0.7830429,3.6859589-1.9596024,5.1770477-3.5297012l3.7649536-3.6474686l7.2946472,7.4127121l-3.6474609,3.6468887
			c-2.5883942,2.5886765-5.5114136,4.529892-8.7653503,5.8242264c-3.255661,1.294342-6.5702209,1.9412231-9.941925,1.9412231
			c-3.3734283,0-6.687973-0.6468811-9.941925-1.9412231c-3.2559357-1.2943344-6.1769562-3.2355499-8.7653503-5.8242264
			c-2.5886688-2.5880966-4.5115051-5.489296-5.7653351-8.7064667c-1.2555695-3.2154465-1.8823395-6.5297089-1.8823395-9.9416351
			c0-3.4124947,0.62677-6.7250328,1.8823395-9.9422035C180.1733093,51.3680763,182.0961456,48.4651527,184.6848145,45.8770561z"/>
		<path fill="#0C3F00" d="M229.8645172,64.7021027c0-3.6859627,0.6856689-7.1185684,2.0589905-10.2949486
			c1.3713226-3.1769562,3.2539368-5.9603844,5.6475677-8.3537292c2.3916321-2.3916206,5.1951599-4.2742424,8.4123383-5.6472816
			c3.2154388-1.3718948,6.6273651-2.0589905,10.2360687-2.0589905c3.6859436,0,7.1182556,0.6870956,10.2949219,2.0589905
			c3.1769714,1.3730392,5.9804993,3.255661,8.4126282,5.6472816c2.4303894,2.3933449,4.3331299,5.1767731,5.7061768,8.3537292
			c1.371582,3.1763802,2.0589905,6.6089859,2.0589905,10.2949486c0,3.6083984-0.6874084,7.0208969-2.0589905,10.2357712
			c-1.3730469,3.2171707-3.2757874,6.0413818-5.7061768,8.4714966c-2.4321289,2.4324112-5.2356567,4.3351364-8.4126282,5.706459
			c-3.1766663,1.3730392-6.6089783,2.0589905-10.2949219,2.0589905c-3.6087036,0-7.0206299-0.6859512-10.2360687-2.0589905
			c-3.2171783-1.3713226-6.0207062-3.2740479-8.4123383-5.706459c-2.393631-2.4301147-4.2762451-5.2543259-5.6475677-8.4714966
			C230.5501862,71.7229996,229.8645172,68.3105011,229.8645172,64.7021027z M240.2183533,64.7021027
			c0,2.1968613,0.4116211,4.2759628,1.2354584,6.2355652c0.8235321,1.9618988,1.9595947,3.667572,3.411911,5.1181717
			c1.4506073,1.4523239,3.1565704,2.5886765,5.1181793,3.4119263c1.9595947,0.823822,4.0386963,1.235733,6.2355804,1.235733
			c2.1951294,0,4.274231-0.411911,6.2358398-1.235733c1.9598999-0.8232498,3.665863-1.9596024,5.1181641-3.4119263
			c1.4503174-1.4505997,2.5884094-3.1562729,3.4119263-5.1181717c0.8235474-1.9596024,1.2354736-4.0387039,1.2354736-6.2355652
			c0-2.1951485-0.4119263-4.2541351-1.2354736-6.1769714c-0.8235168-1.9211082-1.9616089-3.6072502-3.4119263-5.0595741
			c-1.452301-1.4500237-3.1582642-2.5881004-5.1181641-3.4119263c-1.9616089-0.8232498-4.0407104-1.2351608-6.2358398-1.2351608
			c-2.1968842,0-4.2759857,0.411911-6.2355804,1.2351608c-1.9616089,0.8238258-3.667572,1.9619026-5.1181793,3.4119263
			c-1.4523163,1.4523239-2.5883789,3.1384659-3.411911,5.0595741
			C240.6299744,60.4479675,240.2183533,62.5069542,240.2183533,64.7021027z"/>
		<path fill="#0C3F00" d="M339.1661682,16.9334354v47.5331268c0,3.6089706-0.6876526,7.0208969-2.0589905,10.2363434
			c-1.3733215,3.2171707-3.2556458,6.0408096-5.6475525,8.4709244c-2.3936462,2.4324112-5.1971741,4.3351364-8.4123535,5.706459
			c-3.2171631,1.3736191-6.629364,2.0589905-10.2360535,2.0589905c-3.6089783,0-7.0209045-0.6853714-10.2363281-2.0589905
			c-3.2171936-1.3713226-6.0408325-3.2740479-8.4712219-5.706459c-2.4321289-2.4301147-4.3348694-5.2537537-5.7061768-8.4709244
			c-1.3733215-3.2154465-2.0589905-6.6273727-2.0589905-10.2363434c0-3.6859627,0.6856689-7.1179924,2.0589905-10.2949486
			c1.3713074-3.176384,3.2740479-5.9598083,5.7061768-8.3537292c2.4303894-2.3916206,5.2540283-4.2742424,8.4712219-5.6472855
			c3.2154236-1.3713188,6.6273499-2.0589867,10.2363281-2.0589867h15.8836365v-21.178175H339.1661682z M312.8112183,80.4679565
			c2.1948547,0,4.2538452-0.411911,6.1769714-1.2351608c1.9211121-0.823822,3.6066895-1.9601746,5.0589905-3.4124985
			c1.4506226-1.4500275,2.5886841-3.1562729,3.4122314-5.1175995c0.8235168-1.9601746,1.2354431-4.0392761,1.2354431-6.2361374
			V48.5829239h-15.8836365c-2.1968689,0-4.2762451,0.4119148-6.2358398,1.2357407
			c-1.9616089,0.8232498-3.667572,1.9613228-5.1181946,3.4119225c-1.452301,1.4523239-2.5883789,3.1378899-3.4119263,5.0590019
			c-0.8235168,1.9228325-1.2354431,3.981823-1.2354431,6.1769714c0,2.1968613,0.4119263,4.2759628,1.2354431,6.2361374
			c0.8235474,1.9613266,1.9596252,3.667572,3.4119263,5.1175995c1.4506226,1.4523239,3.1565857,2.5886765,5.1181946,3.4124985
			C308.5349731,80.0560455,310.6143494,80.4679565,312.8112183,80.4679565z"/>
		<path fill="#0C3F00" d="M384.2269592,72.3497772l7.4124146,7.4121246l-3.6474609,3.6474686
			c-2.5111084,2.511116-5.3735352,4.4322281-8.5887146,5.7650604c-3.2171631,1.334549-6.5888672,2.0003891-10.1185608,2.0003891
			s-6.9031372-0.6658401-10.1185913-2.0003891c-3.2171631-1.3328323-6.0792847-3.2539444-8.5886841-5.7650604
			c-2.5886841-2.5886688-4.5115051-5.5093994-5.7653503-8.7656403c-1.2555542-3.2539368-1.8823242-6.5681992-1.8823242-9.9416275
			c0-3.3717117,0.62677-6.6658669,1.8823242-9.8830376c1.2538452-3.2154465,3.1766663-6.1183701,5.7653503-8.7070427
			c2.5883789-2.5880966,5.5093994-4.5293159,8.7653503-5.8236504c3.2539368-1.2943382,6.5684814-1.9412193,9.941925-1.9412193
			c3.3717041,0,6.6862488,0.6468811,9.941925,1.9412193c3.2539368,1.2943344,6.1769714,3.2355537,8.7653503,5.8236504
			l3.6474609,3.6474686l-29.2963562,29.2963638c2.9798889,1.4913864,6.1364746,1.9820023,9.4711304,1.4707031
			c3.3331909-0.5090027,6.2542114-2.0182037,8.765625-4.5293198L384.2269592,72.3497772z M357.989502,53.4069595
			c-3.1379089,3.1378899-4.7062683,6.9031258-4.7062683,11.2951431c0,2.4318314,0.5480652,4.7464752,1.6473694,6.9416199
			c0.9413147-0.9410248,2.3714905-2.371521,4.294342-4.2943497c1.9211121-1.9211121,3.9599915-3.9599953,6.1180725-6.1183701
			c2.1566467-2.1560783,4.2357483-4.2150688,6.2358704-6.1769676c2.0000916-1.9596024,3.5480652-3.4889069,4.6473694-4.5884895
			c-2.9816284-1.48909-6.1381836-2.0003929-9.4711304-1.5293045
			C363.4201965,49.4067497,360.4988708,50.8975639,357.989502,53.4069595z"/>
		<path fill="#0C3F00" d="M442.7013245,38.1116104v10.4713135h-31.8847351c-1.4911194,0-2.7466736,0.5113029-3.7649536,1.5298805
			c-1.0202942,1.0203018-1.5296021,2.2755737-1.5296021,3.7646637c0,1.4908142,0.5093079,2.7650452,1.5296021,3.8238373
			c1.01828,1.0587959,2.2738342,1.5884781,3.7649536,1.5884781h21.1781616c2.1948547,0,4.2538452,0.4119148,6.1769714,1.2351646
			c1.9211121,0.8238258,3.6069641,1.9417915,5.0592957,3.3533249c1.4503174,1.4121094,2.5883789,3.0792923,3.4119263,5.0004044
			c0.8235168,1.9228363,1.2354431,3.9818192,1.2354431,6.1769638c0,2.1968689-0.4119263,4.2558594-1.2354431,6.1769714
			c-0.8235474,1.9228363-1.9616089,3.6089783-3.4119263,5.0595779c-1.4523315,1.4523163-3.1381836,2.5880966-5.0592957,3.4119186
			c-1.9231262,0.8232498-3.9821167,1.2351685-6.1769714,1.2351685h-31.7672424V80.4679565h31.7672424
			c1.5680847,0,2.8624268-0.5090027,3.8827209-1.5293045c1.0183105-1.0185776,1.5293274-2.312912,1.5293274-3.8830109
			c0-1.48909-0.5110168-2.7443619-1.5293274-3.7646637c-1.0202942-1.0185776-2.3146362-1.5298767-3.8827209-1.5298767h-21.1781616
			c-2.1968689,0-4.2558594-0.411911-6.1769714-1.2351608c-1.9231262-0.8238297-3.5885925-1.9596024-5.0003967-3.4119263
			c-1.4118347-1.4505997-2.5297852-3.1367416-3.3533325-5.0595779c-0.8235474-1.9211082-1.2354431-3.9800987-1.2354431-6.1769676
			c0-2.1951447,0.4118958-4.2541313,1.2354431-6.1769676c0.8235474-1.9211082,1.9414978-3.588295,3.3533325-5.0004005
			c1.4118042-1.4115334,3.0772705-2.5295029,5.0003967-3.3533249c1.9211121-0.8232536,3.9801025-1.2351646,6.1769714-1.2351646
			H442.7013245z"/>
		<path fill="#0C3F00" d="M492.5875854,72.3497772L500,79.7619019l-3.6474609,3.6474686
			c-2.5111084,2.511116-5.3735352,4.4322281-8.5887146,5.7650604c-3.2171631,1.334549-6.5888672,2.0003891-10.1185608,2.0003891
			s-6.9031372-0.6658401-10.1185913-2.0003891c-3.2171631-1.3328323-6.0792847-3.2539444-8.5886841-5.7650604
			c-2.5886841-2.5886688-4.5115051-5.5093994-5.7653503-8.7656403c-1.2555542-3.2539368-1.8823242-6.5681992-1.8823242-9.9416275
			c0-3.3717117,0.62677-6.6658669,1.8823242-9.8830376c1.2538452-3.2154465,3.1766663-6.1183701,5.7653503-8.7070427
			c2.5883789-2.5880966,5.5093994-4.5293159,8.7653503-5.8236504c3.2539368-1.2943382,6.5684814-1.9412193,9.941925-1.9412193
			c3.3717041,0,6.6862488,0.6468811,9.941925,1.9412193c3.2539368,1.2943344,6.1769714,3.2355537,8.7653503,5.8236504L500,49.759491
			l-29.2963562,29.2963638c2.9798889,1.4913864,6.1364746,1.9820023,9.4711304,1.4707031
			c3.3331909-0.5090027,6.2542114-2.0182037,8.765625-4.5293198L492.5875854,72.3497772z M466.3501282,53.4069595
			c-3.1379089,3.1378899-4.7062683,6.9031258-4.7062683,11.2951431c0,2.4318314,0.5480652,4.7464752,1.6473694,6.9416199
			c0.9413147-0.9410248,2.371521-2.371521,4.294342-4.2943497c1.9211121-1.9211121,3.9599915-3.9599953,6.1180725-6.1183701
			c2.1566467-2.1560783,4.2357483-4.2150688,6.2358704-6.1769676c2.0000916-1.9596024,3.5480652-3.4889069,4.6473694-4.5884895
			c-2.9816284-1.48909-6.1381836-2.0003929-9.4711304-1.5293045
			C471.7808228,49.4067497,468.8594971,50.8975639,466.3501282,53.4069595z"/>
	</g>
	<g>
		<path fill="#0C3F00" d="M212.52388,126.3403931c0-7.0085754,0.0085907-13.6422882,0.2151184-17.3728714h-0.0519562
			c-1.8064575,5.1909485-9.0138397,21.3168564-14.5216827,33.7130508h-3.5678406
			c-4.1101685-9.8593292-11.982254-28.1940384-14.0218811-33.6696777h-0.0519562
			c0.3448029,4.1887436,0.489502,12.1454239,0.489502,18.3390045v15.3306732h-3.8958893v-36.7617493h5.9101868
			c5.4352722,12.223999,12.5043945,28.7127533,13.588623,31.6450806h0.0515289
			c1.8000183-4.2102051,8.9829254-20.3026276,13.9329834-31.6450806h6.0050812v36.7617493H212.52388V126.3403931z"/>
		<path fill="#0C3F00" d="M247.7080231,135.7840729c0,2.2779388,0.155014,5.5628052,0.2499084,6.1738281h-3.7305756
			c-0.206543-1.044281-0.3014374-3.1564789-0.3095856-4.0522003c-1.3586121,2.8262787-4.2823639,4.7748718-9.9658203,4.7748718
			c-7.407486,0-10.0542755-4.4824524-10.0542755-8.2976227c0-6.594635,6.0553284-8.4260025,13.39711-8.4260025
			c3.4617767,0,5.704071,0,6.58992,0v-1.5462494c0-3.0529938-1.3109436-5.9883347-7.3426514-5.9883347
			c-5.3919067,0-6.6779327,2.4441071-7.2477417,5.086174h-3.9001923c0.3366394-3.5115891,2.6592407-8.2379303,11.1663971-8.2379303
			c8.9060669,0,11.1475067,4.4128876,11.1475067,8.6866455V135.7840729z M243.8847046,128.9124603
			c-0.8712463-0.0081482-2.5995636-0.0081482-6.4782715-0.0081482c-6.4795685,0-9.6150055,1.3873749-9.6150055,5.273819
			c0,2.8486023,2.0705414,5.2575073,6.7642517,5.2575073c7.5964203,0,9.3290253-4.6069794,9.3290253-9.1817474V128.9124603z"/>
		<path fill="#0C3F00" d="M256.763092,123.2607803c0-2.1843338,0-4.5915146-0.0515137-6.5448303h3.7803955
			c0.1030579,0.9395142,0.1627197,3.2595291,0.1713257,5.2287369c1.1086731-2.7000351,3.9160767-5.9514084,9.6330261-5.9514084
			c6.0080872,0,10.0091858,3.6957932,10.0091858,10.9422607v15.7450333h-3.9169312v-14.9931641
			c0-4.6507721-1.7772827-8.2632675-6.9420166-8.2632675c-5.8668213,0-8.775116,4.5494308-8.775116,10.9551315v12.3013h-3.9083557
			V123.2607803z"/>
		<path fill="#0C3F00" d="M310.5765381,135.7840729c0,2.2779388,0.1549988,5.5628052,0.2499084,6.1738281h-3.7305908
			c-0.206543-1.044281-0.3014221-3.1564789-0.3096008-4.0522003c-1.3585815,2.8262787-4.2823486,4.7748718-9.9657898,4.7748718
			c-7.4075012,0-10.0542908-4.4824524-10.0542908-8.2976227c0-6.594635,6.0553284-8.4260025,13.3971252-8.4260025
			c3.4617615,0,5.704071,0,6.5899048,0v-1.5462494c0-3.0529938-1.3109436-5.9883347-7.3426514-5.9883347
			c-5.3919067,0-6.677948,2.4441071-7.2477417,5.086174h-3.900177c0.3366394-3.5115891,2.6592407-8.2379303,11.1663818-8.2379303
			c8.9060669,0,11.147522,4.4128876,11.147522,8.6866455V135.7840729z M306.7532043,128.9124603
			c-0.8712463-0.0081482-2.5995483-0.0081482-6.4782715-0.0081482c-6.4795532,0-9.6149902,1.3873749-9.6149902,5.273819
			c0,2.8486023,2.0705261,5.2575073,6.7642517,5.2575073c7.596405,0,9.32901-4.6069794,9.32901-9.1817474V128.9124603z"/>
		<path fill="#0C3F00" d="M342.1696777,134.3808136c0,2.5372925-0.008606,5.0397949,0.0433655,7.5770874h-3.73703
			c-0.1034851-0.7226715-0.1902161-2.7601471-0.1983948-4.789032c-1.2984619,3.2097168-3.7365723,5.5117035-9.4844666,5.5117035
			c-5.5310059,0-9.7880249-2.9568176-9.7880249-10.5068512v-16.1804428h3.8997498v15.4199753
			c0,4.0650787,1.6291199,7.7930908,6.6577759,7.7930908c6.0647583,0,8.7068176-3.5197449,8.7068176-11.5541458v-11.6589203
			h3.9002075V134.3808136z"/>
		<path fill="#0C3F00" d="M352.2471313,134.1330414c1.0090637,3.4282837,3.9096375,5.3871918,8.9545898,5.3871918
			c5.4266968,0,7.4229431-1.9339905,7.4229431-4.5696259c0-2.3822784-1.3521729-4.0766602-8.3607483-4.8860779
			c-8.9009094-1.0631714-10.7198181-4.1110153-10.7198181-7.3628235c0-3.18396,2.5853577-7.4310989,10.6871948-7.4310989
			c8.9335327,0,11.2651672,4.7340698,11.5047607,7.6681213h-3.9620361c-0.4049072-1.6634674-1.5071716-4.5408401-7.80896-4.5408401
			c-5.309021,0-6.4671021,2.3324661-6.4671021,3.9813461c0,2.1860428,1.3375549,3.4905472,7.6028442,4.2999496
			c9.5286865,1.2263565,11.4772949,4.0843964,11.4772949,8.0090637c0,4.6430511-3.542511,7.9923248-11.6056824,7.9923248
			c-7.7029114,0-11.78302-3.2621155-12.6958923-8.5475311H352.2471313z"/>
	</g>
</g>
</svg>
