<svg width="263" height="160" viewBox="0 0 263 160" fill="none" xmlns="http://www.w3.org/2000/svg">
<g clip-path="url(#clip0)">
<path d="M6.30683 105.408C7.96475 108.441 11.4835 109.743 11.4835 109.743C11.4835 109.743 12.3141 106.128 10.6562 103.095C8.99829 100.062 5.47959 98.7603 5.47959 98.7603C5.47959 98.7603 4.6489 102.375 6.30683 105.408Z" fill="#3F3D56"/>
<path d="M7.44636 104.41C10.4396 106.187 11.5924 109.715 11.5924 109.715C11.5924 109.715 7.89218 110.363 4.89895 108.587C1.90571 106.81 0.75293 103.282 0.75293 103.282C0.75293 103.282 4.45313 102.634 7.44636 104.41Z" fill="#FED983"/>
<path d="M164.143 55.0955C164.143 79.3436 149.528 87.8101 131.5 87.8101C113.472 87.8101 98.8569 79.3436 98.8569 55.0955C98.8569 30.8474 131.5 6.10352e-05 131.5 6.10352e-05C131.5 6.10352e-05 164.143 30.8474 164.143 55.0955Z" fill="#F7F7FF"/>
<path d="M130.311 84.1009L130.645 63.8073L144.559 38.7015L130.697 60.6239L130.848 51.4992L140.437 33.3353L130.888 49.0844L131.158 32.6732L141.426 18.2124L131.201 30.0924L131.369 0L130.308 39.8371L130.395 38.1938L119.955 22.4324L130.228 41.3484L129.255 59.6769L129.226 59.1905L117.191 42.6042L129.19 60.9091L129.068 63.2014L129.046 63.2359L129.056 63.4241L126.588 109.925H129.885L130.281 85.9063L142.25 67.6463L130.311 84.1009Z" fill="#3F3D56"/>
<path d="M255.413 55.0955C255.413 79.3436 240.799 87.8101 222.77 87.8101C204.742 87.8101 190.127 79.3436 190.127 55.0955C190.127 30.8474 222.77 6.10352e-05 222.77 6.10352e-05C222.77 6.10352e-05 255.413 30.8474 255.413 55.0955Z" fill="#F7F7FF"/>
<path d="M221.581 84.1009L221.915 63.8073L235.829 38.7015L221.968 60.6239L222.118 51.4992L231.707 33.3353L222.158 49.0844L222.428 32.6732L232.696 18.2124L222.471 30.0924L222.639 0L221.578 39.8371L221.665 38.1938L211.225 22.4324L221.498 41.3484L220.525 59.6769L220.496 59.1905L208.461 42.6042L220.46 60.9091L220.338 63.2014L220.316 63.2359L220.326 63.4241L217.858 109.925H221.156L221.551 85.9063L233.52 67.6463L221.581 84.1009Z" fill="#3F3D56"/>
<path d="M25.8615 74.5547C32.7579 74.5547 38.3485 69.0405 38.3485 62.2384C38.3485 55.4362 32.7579 49.922 25.8615 49.922C18.9651 49.922 13.3745 55.4362 13.3745 62.2384C13.3745 69.0405 18.9651 74.5547 25.8615 74.5547Z" fill="#FF6584"/>
<path d="M10.0185 85.4045L8.18555 82.3912L25.2937 67.9275H69.2864V72.1461L53.4002 89.0204L35.0699 92.6365L10.0185 85.4045Z" fill="#3F3D56"/>
<path d="M76.8592 76.4154V66.9864H71.0995V69.9597L69.2863 67.9275L54.622 82.3911L52.1779 84.8018L49.123 96.855L54.622 110.113H82.7285V82.9938L76.8592 76.4154Z" fill="#CCCCCC"/>
<path d="M54.6223 82.3912H8.18555V110.114H54.6223V82.3912Z" fill="#F2F2F2"/>
<path d="M48.2068 91.1298H38.4307V99.567H48.2068V91.1298Z" fill="#3F3D56"/>
<path d="M34.4589 90.8284H25.9048V110.113H34.4589V90.8284Z" fill="#CCCCCC"/>
<path d="M16.1284 93.8416V90.8285H12.4624V93.8416H15.8228H16.1284Z" fill="#3F3D56"/>
<path d="M15.8228 96.2523H12.4624V99.2657H16.1284V96.2523H15.8228Z" fill="#3F3D56"/>
<path d="M22.2388 90.8284H18.5728V93.8417H22.2388V90.8284Z" fill="#3F3D56"/>
<path d="M22.2388 96.2524H18.5728V99.2657H22.2388V96.2524Z" fill="#3F3D56"/>
<path d="M67.759 94.143V91.1299H64.0928V94.143H67.4534H67.759Z" fill="#3F3D56"/>
<path d="M67.4534 96.5537H64.0928V99.5671H67.759V96.5537H67.4534Z" fill="#3F3D56"/>
<path d="M73.8692 91.1298H70.2031V94.1431H73.8692V91.1298Z" fill="#3F3D56"/>
<path d="M73.8692 96.5537H70.2031V99.567H73.8692V96.5537Z" fill="#3F3D56"/>
<path d="M98.187 85.3879L96.354 82.3748L113.462 67.9109H157.455V72.1295L141.569 89.004L123.238 92.6199L98.187 85.3879Z" fill="#3F3D56"/>
<path d="M165.028 76.3989V66.9699H159.268V69.9431L157.455 67.9109L142.791 82.3748L140.347 84.7853L137.292 96.8385L142.791 110.097H170.897V82.9773L165.028 76.3989Z" fill="#CCCCCC"/>
<path d="M142.791 82.3747H96.354V110.097H142.791V82.3747Z" fill="#F2F2F2"/>
<path d="M136.375 91.1132H126.599V99.5504H136.375V91.1132Z" fill="#3F3D56"/>
<path d="M122.627 90.812H114.073V110.097H122.627V90.812Z" fill="#CCCCCC"/>
<path d="M104.297 93.8252V90.812H100.631V93.8252H103.992H104.297Z" fill="#3F3D56"/>
<path d="M103.992 96.2357H100.631V99.2491H104.297V96.2357H103.992Z" fill="#3F3D56"/>
<path d="M110.407 90.812H106.741V93.8252H110.407V90.812Z" fill="#3F3D56"/>
<path d="M110.407 96.2358H106.741V99.2492H110.407V96.2358Z" fill="#3F3D56"/>
<path d="M155.927 94.1265V91.1133H152.261V94.1265H155.622H155.927Z" fill="#3F3D56"/>
<path d="M155.622 96.5371H152.261V99.5505H155.927V96.5371H155.622Z" fill="#3F3D56"/>
<path d="M162.038 91.1132H158.372V94.1265H162.038V91.1132Z" fill="#3F3D56"/>
<path d="M162.038 96.5372H158.372V99.5505H162.038V96.5372Z" fill="#3F3D56"/>
<path d="M183.709 85.3879L181.876 82.3748L198.984 67.9109H242.977V72.1295L227.091 89.004L208.76 92.6199L183.709 85.3879Z" fill="#3F3D56"/>
<path d="M250.55 76.3989V66.9699H244.79V69.9431L242.977 67.9109L228.313 82.3748L225.869 84.7853L222.814 96.8385L228.313 110.097H256.419V82.9773L250.55 76.3989Z" fill="#CCCCCC"/>
<path d="M228.313 82.3747H181.876V110.097H228.313V82.3747Z" fill="#F2F2F2"/>
<path d="M221.897 91.1132H212.121V99.5504H221.897V91.1132Z" fill="#3F3D56"/>
<path d="M208.15 90.812H199.596V110.097H208.15V90.812Z" fill="#CCCCCC"/>
<path d="M189.82 93.8252V90.812H186.153V93.8252H189.514H189.82Z" fill="#3F3D56"/>
<path d="M189.514 96.2357H186.153V99.2491H189.82V96.2357H189.514Z" fill="#3F3D56"/>
<path d="M195.929 90.812H192.263V93.8252H195.929V90.812Z" fill="#3F3D56"/>
<path d="M195.929 96.2358H192.263V99.2492H195.929V96.2358Z" fill="#3F3D56"/>
<path d="M241.45 94.1265V91.1133H237.784V94.1265H241.144H241.45Z" fill="#3F3D56"/>
<path d="M241.144 96.5371H237.784V99.5505H241.45V96.5371H241.144Z" fill="#3F3D56"/>
<path d="M247.56 91.1132H243.894V94.1265H247.56V91.1132Z" fill="#3F3D56"/>
<path d="M247.56 96.5372H243.894V99.5505H247.56V96.5372Z" fill="#3F3D56"/>
<path d="M175.722 92.1987H175.265V110.112H175.722V92.1987Z" fill="#3F3D56"/>
<path d="M179.968 94.4816C179.997 100.746 175.529 105.844 175.529 105.844C175.529 105.844 171.014 100.786 170.985 94.5225C170.955 88.2585 175.423 83.1601 175.423 83.1601C175.423 83.1601 179.939 88.2177 179.968 94.4816Z" fill="#FED983"/>
<path d="M92.0389 91.7451H91.582V109.659H92.0389V91.7451Z" fill="#3F3D56"/>
<path d="M96.2851 94.0281C96.3144 100.292 91.8463 105.39 91.8463 105.39C91.8463 105.39 87.3307 100.333 87.3014 94.0689C87.2721 87.8049 91.7403 82.7065 91.7403 82.7065C91.7403 82.7065 96.2559 87.7641 96.2851 94.0281Z" fill="#FED983"/>
<path opacity="0.1" d="M96.2851 94.0281C96.3144 100.292 91.8463 105.39 91.8463 105.39C91.8463 105.39 87.3307 100.333 87.3014 94.0689C87.2721 87.8049 91.7403 82.7065 91.7403 82.7065C91.7403 82.7065 96.2559 87.7641 96.2851 94.0281Z" fill="black"/>
<path d="M86.0614 91.7451H85.6045V109.659H86.0614V91.7451Z" fill="#3F3D56"/>
<path d="M90.3076 94.0281C90.3368 100.292 85.8687 105.39 85.8687 105.39C85.8687 105.39 81.3531 100.333 81.3239 94.0689C81.2946 87.8049 85.7627 82.7065 85.7627 82.7065C85.7627 82.7065 90.2783 87.7641 90.3076 94.0281Z" fill="#FED983"/>
<path d="M262.994 109.66H1.59961V110.114H262.994V109.66Z" fill="#3F3D56"/>
<path d="M60.786 96.091C60.786 96.091 61.0214 96.3572 60.6179 96.8722C60.2144 97.3873 60.5403 98.5049 61.3069 98.5333C62.0735 98.5618 62.4452 98.8785 62.2604 99.2957C62.0756 99.7128 61.8535 100.704 62.6883 100.553C63.5232 100.403 63.787 100.73 63.6392 100.982C63.4914 101.234 64.0115 100.481 64.0115 100.481C64.0115 100.481 64.4767 101.165 65.0477 100.686C65.6187 100.208 65.8457 95.87 64.6817 95.7965C63.5176 95.723 60.786 96.091 60.786 96.091Z" fill="#2F2E41"/>
<path d="M66.687 116.72L66.9521 118.551H68.146L67.748 116.458L66.687 116.72Z" fill="#FFB8B8"/>
<path d="M68.2789 117.439C68.2789 117.439 69.8705 118.878 69.4726 119.009C69.0747 119.14 67.6157 120.71 67.3504 120.841C67.1132 120.958 64.5651 121.756 64.963 120.841C65.2556 120.245 65.7161 119.745 66.2893 119.402L66.5546 117.832L68.2789 117.439Z" fill="#F2F2F2"/>
<path opacity="0.1" d="M68.2789 117.439C68.2789 117.439 69.8705 118.878 69.4726 119.009C69.0747 119.14 67.6157 120.71 67.3504 120.841C67.1132 120.958 64.5651 121.756 64.963 120.841C65.2556 120.245 65.7161 119.745 66.2893 119.402L66.5546 117.832L68.2789 117.439Z" fill="black"/>
<path d="M68.2788 115.346L68.5441 117.178H69.7377L69.3398 115.084L68.2788 115.346Z" fill="#FFB8B8"/>
<path d="M63.291 110.484L65.0294 104.815C65.0294 104.815 62.1114 102.198 64.1009 101.413C66.0904 100.629 66.621 104.553 66.621 104.553L65.9578 111.356H63.3051L63.291 110.484Z" fill="#FFB8B8"/>
<path d="M67.3501 106.319C67.3501 106.319 63.9221 110.656 64.4424 111.3C64.9627 111.945 65.8912 115.869 65.8912 115.869C65.8912 115.869 65.7585 117.439 66.2891 117.439C66.8196 117.439 68.1459 117.178 68.1459 116.785C68.1459 116.393 66.9522 111.421 66.9522 111.421L70.4007 106.973L67.3501 106.319Z" fill="#FED983"/>
<path d="M67.6155 106.581L71.064 104.749C71.064 104.749 73.4514 105.927 72.7883 106.973C72.1251 108.02 69.0745 110.767 69.0745 110.767C69.0745 110.767 70.0029 115.215 69.8703 115.346C69.7377 115.477 68.2787 116 67.8808 115.869C67.4829 115.739 65.3607 110.636 65.8913 110.375C66.4218 110.113 68.146 107.366 68.146 107.366L67.6155 106.581Z" fill="#FED983"/>
<path d="M58.1983 156.633C58.1983 156.633 60.5857 158.073 60.851 158.073C61.1162 158.073 64.6974 158.988 63.1058 159.642C61.5141 160.297 55.413 159.381 55.5456 158.988C55.6782 158.596 55.5456 156.241 55.8109 156.241C56.0761 156.241 58.1983 156.633 58.1983 156.633Z" fill="#2F2E41"/>
<path d="M60.8511 156.424C60.8511 156.424 63.2385 157.863 63.5038 157.863C63.7691 157.863 67.3502 158.779 65.7586 159.433C64.167 160.087 58.0658 159.171 58.1984 158.779C58.3311 158.387 58.1984 156.032 58.4637 156.032C58.729 156.032 60.8511 156.424 60.8511 156.424Z" fill="#2F2E41"/>
<path d="M58.101 129.143C58.101 129.143 58.7288 132.693 59.392 134.132C60.0551 135.571 59.2593 142.374 58.8614 143.42C58.4635 144.467 54.6171 156.895 55.8108 157.026C57.0045 157.157 59.392 157.026 59.392 157.026L63.2384 145.121L62.5752 129.161L58.101 129.143Z" fill="#575A88"/>
<path opacity="0.1" d="M58.101 129.143C58.101 129.143 58.7288 132.693 59.392 134.132C60.0551 135.571 59.2593 142.374 58.8614 143.42C58.4635 144.467 54.6171 156.895 55.8108 157.026C57.0045 157.157 59.392 157.026 59.392 157.026L63.2384 145.121L62.5752 129.161L58.101 129.143Z" fill="black"/>
<path d="M59.1267 128.821C59.1267 128.821 59.6573 132.353 60.851 133.138C62.0447 133.923 61.6468 134.708 61.6468 134.708L61.1163 141.641C61.1163 141.641 55.9435 154.2 57.5351 155.77C59.1268 157.34 60.5857 156.686 61.2489 156.555C61.9121 156.424 63.1058 153.677 62.4426 152.892C61.7795 152.107 63.769 147.397 64.2995 146.613C64.8301 145.828 64.2995 144.781 64.9627 144.519C65.6259 144.258 67.0849 142.557 67.0849 141.38C67.0849 140.202 68.9418 127.643 67.748 126.858C66.5543 126.073 58.9027 128.478 58.9027 128.478L59.1267 128.821Z" fill="#575A88"/>
<path d="M56.6069 110.506C58.2185 110.506 59.5249 109.217 59.5249 107.628C59.5249 106.038 58.2185 104.749 56.6069 104.749C54.9954 104.749 53.689 106.038 53.689 107.628C53.689 109.217 54.9954 110.506 56.6069 110.506Z" fill="#FFB8B8"/>
<path d="M63.2385 99.5166C64.557 99.5166 65.6259 98.4623 65.6259 97.1618C65.6259 95.8613 64.557 94.807 63.2385 94.807C61.92 94.807 60.8511 95.8613 60.8511 97.1618C60.8511 98.4623 61.92 99.5166 63.2385 99.5166Z" fill="#FFB8B8"/>
<path d="M58.5965 107.628C58.5965 107.628 60.1881 110.506 60.9839 110.506C61.7797 110.506 57.8007 113.515 57.8007 113.515C57.8007 113.515 56.4743 109.721 56.2091 109.59C55.9438 109.459 58.5965 107.628 58.5965 107.628Z" fill="#FFB8B8"/>
<path d="M59.1271 110.244C59.1271 110.244 55.6786 111.421 55.8112 111.814C55.9439 112.206 54.8828 113.122 54.8828 113.515C54.8828 113.907 54.6175 117.439 56.2091 120.317C57.8008 123.195 60.3208 125.289 59.1271 126.597C57.9334 127.905 56.0765 130.129 58.066 130.129C60.0555 130.129 63.2388 127.251 66.1568 128.297C69.0747 129.344 68.4115 125.419 68.4115 125.419C68.4115 125.419 68.8094 122.41 68.0136 121.495C67.2178 120.579 64.4325 114.038 64.4325 113.253C64.4325 112.468 61.7798 109.459 61.1166 109.459C60.4534 109.459 59.1271 110.244 59.1271 110.244Z" fill="#8985A8"/>
<path d="M63.9019 98.6008C63.9019 98.6008 64.9819 100.626 65.0387 100.987C65.0956 101.348 66.9524 98.6008 66.9524 98.6008L64.8303 97.1618L63.9019 98.6008Z" fill="#FFB8B8"/>
<path d="M64.2996 100.171L66.5544 97.8159L69.2071 98.9933C69.2071 98.9933 71.6811 104.357 71.8368 104.75C71.9925 105.142 67.8808 106.973 67.4829 106.973C67.085 106.973 64.2996 102.918 64.2996 102.918C64.2996 102.918 63.6365 100.956 64.2996 100.171Z" fill="#F2F2F2"/>
<path d="M63.2383 103.31V105.665H64.8301L64.3066 103.31H63.2383Z" fill="#FFB8B8"/>
<path d="M64.1468 105.077C63.9457 105.074 63.7485 105.132 63.5816 105.242C63.4147 105.353 63.2859 105.511 63.2125 105.696C63.1088 105.973 63.144 106.263 63.6366 106.385C64.6977 106.646 64.8303 106.385 64.8303 106.385C64.8303 106.385 66.6723 106.123 66.2819 105.6C65.8914 105.077 64.8303 105.077 64.8303 105.077H64.1468Z" fill="#FFB8B8"/>
<path d="M69.8702 116.393C69.8702 116.393 71.4618 117.832 71.0639 117.963C70.666 118.093 69.207 119.663 68.9417 119.794C68.7045 119.911 66.1564 120.71 66.5543 119.794C66.8469 119.199 67.3074 118.699 67.8806 118.355L68.1459 116.785L69.8702 116.393Z" fill="#F2F2F2"/>
<path d="M55.567 105.412C55.7496 105.307 55.9652 105.175 55.9704 104.967C55.9657 104.89 55.9383 104.816 55.8917 104.755C55.8452 104.693 55.7814 104.646 55.7082 104.62C55.561 104.57 55.4052 104.549 55.2499 104.559C55.1903 104.556 55.1305 104.562 55.0727 104.577C54.9216 104.622 54.8346 104.774 54.7156 104.876C54.5269 105.007 54.3103 105.092 54.0825 105.126C53.7102 105.222 53.3531 105.367 53.0216 105.56C52.9561 105.593 52.8988 105.639 52.8537 105.696C52.8015 105.801 52.7783 105.918 52.7862 106.035C52.7563 106.479 52.4865 106.865 52.2851 107.263C52.0837 107.661 51.9513 108.157 52.1877 108.536C52.2816 108.654 52.3691 108.776 52.4501 108.903C52.6176 109.247 52.4085 109.671 52.5295 110.034C52.5837 110.177 52.6706 110.306 52.7835 110.41C53.0164 110.641 53.3034 110.812 53.6192 110.909C53.9206 111 54.2946 111.061 54.4126 111.35C54.4388 111.48 54.4762 111.608 54.5244 111.733C54.5783 111.796 54.6447 111.848 54.7197 111.885C54.7946 111.922 54.8764 111.944 54.9602 111.948C55.1452 111.99 55.3355 112.004 55.5247 111.989C55.6193 111.981 55.7113 111.954 55.795 111.909C55.8787 111.865 55.9524 111.805 56.0117 111.731C56.0652 111.628 56.1314 111.532 56.2089 111.445C56.4009 111.286 56.6926 111.411 56.9393 111.369C57.0392 111.351 57.1317 111.305 57.2058 111.236C57.28 111.167 57.3327 111.079 57.3579 110.982C57.3647 110.878 57.3936 110.777 57.4428 110.686C57.596 110.492 57.999 110.629 58.1002 110.405C58.1659 110.259 58.0284 110.105 57.8955 110.014C57.6679 109.884 57.4495 109.737 57.242 109.577C57.1389 109.496 57.0591 109.389 57.0104 109.268C56.9618 109.147 56.946 109.015 56.9646 108.886C57.0559 108.507 57.558 108.298 57.5746 107.909C57.5676 107.797 57.5334 107.688 57.4752 107.592C57.4169 107.496 57.3361 107.416 57.2396 107.357C57.0461 107.241 56.8605 107.113 56.684 106.973C56.5651 106.859 56.4754 106.717 56.3462 106.615C56.0909 106.458 55.7956 106.376 55.4948 106.378C55.335 106.362 54.698 106.289 54.723 106.049C54.7438 105.85 55.4049 105.506 55.567 105.412Z" fill="#2F2E41"/>
<path d="M64.2996 100.04C64.2996 100.04 62.8406 100.563 62.8406 101.217C62.8406 101.871 62.1775 103.964 62.8406 103.964C63.5038 103.964 64.8302 103.462 64.8302 103.462L64.2996 100.04Z" fill="#F2F2F2"/>
<path d="M63.9018 109.459C63.9018 109.459 67.7482 108.151 67.8808 108.151C68.0135 108.151 69.8703 107.104 69.7377 106.712L69.2072 103.441C69.2072 103.441 67.085 99.1241 68.544 99.1241C70.003 99.1241 70.7988 102.525 70.7988 102.525C70.7988 102.525 73.982 108.412 72.2578 109.721C70.5335 111.029 63.3713 113.384 62.9734 112.991C62.5755 112.599 63.9018 109.459 63.9018 109.459Z" fill="#FFB8B8"/>
<path d="M67.6154 100.956L68.5107 101.807L67.3501 102.918C67.3501 102.918 65.7585 102.264 65.8912 102.656C66.0238 103.049 66.8196 104.226 67.3501 104.226C67.8807 104.226 70.6419 102.526 70.6539 102.002C70.666 101.479 68.9417 99.6474 68.5438 99.5166C68.1459 99.3858 67.6154 100.956 67.6154 100.956Z" fill="#FFB8B8"/>
<path d="M65.9321 100.044C65.9321 100.044 67.8808 101.741 68.1461 101.741C68.4114 101.741 68.8938 99.1911 68.8938 99.1911C68.8938 99.1911 67.3215 98.1806 66.739 98.4561C66.1566 98.7316 65.9321 100.044 65.9321 100.044Z" fill="#F2F2F2"/>
<path d="M59.127 111.029C59.127 111.029 59.127 109.197 63.106 109.197H64.8303L64.0344 113.515L61.3817 114.299L59.127 111.029Z" fill="#8985A8"/>
<path d="M67.8188 96.2074C67.4289 96.2056 67.0393 96.1819 66.6521 96.1365C66.348 95.4116 65.9606 94.8033 65.5416 94.5766C65.2029 94.3205 64.8266 94.1168 64.4257 93.9726C63.542 93.6023 62.0708 93.8333 61.9848 94.2544C60.2458 95.074 60.6853 96.5133 60.6853 96.5133C60.9555 97.0766 61.5617 96.8269 62.0759 96.5718C62.1236 96.7754 62.2346 96.9592 62.3934 97.0976C62.5522 97.2359 62.7508 97.3218 62.9615 97.3433C63.8108 97.3748 64.2226 97.7256 64.0179 98.1877C63.8131 98.6499 63.5671 99.748 64.4919 99.581C65.4168 99.414 65.7091 99.7772 65.5453 100.056C65.3816 100.335 65.9577 99.5012 65.9577 99.5012C65.9577 99.5012 66.4731 100.259 67.1056 99.7284C67.1696 99.6676 67.2152 99.5905 67.2374 99.5057C67.436 99.6213 67.6703 99.6618 67.8969 99.6196C68.6545 99.2853 68.184 98.5001 68.184 98.5001C68.184 98.5001 69.1955 98.3471 68.8696 98.3724C68.5436 98.3978 68.3375 97.9811 68.8889 97.23C69.4404 96.479 68.3298 96.2245 67.8188 96.2074Z" fill="#2F2E41"/>
<path d="M62.6855 95.6179L62.3101 95.4947L61.9334 96.6112L62.3088 96.7344L62.6855 95.6179Z" fill="#FED983"/>
<path d="M90.8056 159.547H24.8247V160H90.8056V159.547Z" fill="#3F3D56"/>
<path d="M232.653 138.231H166.672V138.685H232.653V138.231Z" fill="#3F3D56"/>
</g>
<defs>
<clipPath id="clip0">
<rect x="0.75293" width="262.247" height="160" fill="white"/>
</clipPath>
</defs>
</svg>
